# xmcd
#
# Track frame offsets: 
#        150
#        9880
#        24304
#        37438
#        51436
#        62969
#        76140
#        91350
#        104736
#        118611
#        130618
#        145335
#        157495
#        172493
#        184414
#        198206
#        212337
#        225815
#        238217
#        252238
#
# Disc length: 3506 seconds
#
# Revision: 0
# Processed by: cddbd v1.5.2PL0 Copyright (c) Steve Scherf et al.
# Submitted via: ExactAudioCopyFreeDBPlugin 1.0
#
DISCID=210db014
DTITLE=Cole Porter - Easy To Love [Disc 2]
DYEAR=2005
DGENRE=Jazz
TTITLE0=Peggy Lee With Jimmie Rowles Quartet - My Heart Belongs To Dad
TTITLE0=dy
TTITLE1=Ethel Merman and Bing Crosby With Victor Young Orchestra - You'r
TTITLE1=e The Top
TTITLE2=Billy Eckstine and His Orchestra - In The Still Of The Night
TTITLE3=Blanche Calloway and Her Joy Boys - I'm Getting Ready For You
TTITLE4=Judy Garland and Johnny Mercer - Friendship
TTITLE5=Frank Sinatra With Nelson Riddle Orchestra - I Get A Kick Out 
TTITLE5=Of You
TTITLE6=Lee Wiley With Bunny Berigan's Music - Let's Do It (Let's Fall
TTITLE6=In Love)
TTITLE7=Sam Browne With Ambrose and His Orchestra - All Through The Nigh
TTITLE7=t
TTITLE8=Bing Crosby With Vic Schoen and His Orchestra - Why Can't You Be
TTITLE8=have?
TTITLE9=Kay Starr With Harold Mooney Orchestra - Allez-Vous-En
TTITLE10=Mel Tormé With Artie Shaw and Orchestra - Get Out Of Town
TTITLE11=Billy Eckstine and Sarah Vaughan With Joe Lippman Orchestra - I
TTITLE11=Love You
TTITLE12=Al Bowlly With Ray Noble and His Orchestra - How Could We Be Wr
TTITLE12=ong?
TTITLE13=Frances Langford With Jimmy Dorsey and His Orchestra - Swingin'
TTITLE13=The Jinx Away
TTITLE14=Dizzy Gillespie and His Operatic Strings - Night and Day
TTITLE15=Ethel Merman With Fairchild-Carroll and Orchestra - Down In The
TTITLE15=Depths (On The 90th Floor)
TTITLE16=Marlene Dietrich - You Do Something To Me
TTITLE17=Fred Astaire With Harry Sosnik and His Orchestra - Dream Dancin
TTITLE17=g
TTITLE18=Peggy Lee With Benny Goodman and His Orchestra - Everything I L
TTITLE18=ove
TTITLE19=Les Brown and His Band of Renown - From This Moment On (Live)
EXTD=
EXTT0=
EXTT1=
EXTT2=
EXTT3=
EXTT4=
EXTT5=
EXTT6=
EXTT7=
EXTT8=
EXTT9=
EXTT10=
EXTT11=
EXTT12=
EXTT13=
EXTT14=
EXTT15=
EXTT16=
EXTT17=
EXTT18=
EXTT19=
PLAYORDER=
